# xmcd
#
# Track frame offsets: 
#        150
#        12899
#        25076
#        36224
#        48027
#        59624
#        70473
#        80254
#        91772
#        106907
#        119853
#
# Disc length: 1735 seconds
#
# Revision: 0
# Processed by: cddbd v1.5.2PL0 Copyright (c) Steve Scherf et al.
# Submitted via: ExactAudioCopy v1.0b1
#
DISCID=8906c50b
DTITLE=Jimmy Dickens - Columbia Historic Edition
DYEAR=1900
DGENRE=Country
TTITLE0=Take An Old Cold 'Tater
TTITLE1=I'll Be Back A-Sunday
TTITLE2=I'm Little But I'm Loud
TTITLE3=The Last Time
TTITLE4=It May Be Silly (But Ain't It Fun)
TTITLE5=Out Behind The Barn
TTITLE6=Slow Suicide
TTITLE7=I Wish You Didn't Love Me So Much
TTITLE8=The Tramp On The Street
TTITLE9=John Henry
TTITLE10=Salty Boogie
EXTD=
EXTT0=
EXTT1=
EXTT2=
EXTT3=
EXTT4=
EXTT5=
EXTT6=
EXTT7=
EXTT8=
EXTT9=
EXTT10=
PLAYORDER=
